<svg width="40" height="50" viewBox="0 0 40 50" fill="none" xmlns="http://www.w3.org/2000/svg">
<path d="M13.1429 39.5862V40.5542C13.1429 41.6193 14.0063 42.4828 15.0714 42.4828V42.4828C16.1365 42.4828 17 41.6193 17 40.5542V39.0431C17 37.1434 15.46 35.6034 13.5603 35.6034H13C10.7909 35.6034 9 37.3943 9 39.6034V43.4305C9 46.5065 11.4935 49 14.5694 49V49C15.5079 49 16.4312 48.7629 17.2535 48.3106L20.9536 46.2755C24.0662 44.5636 26 41.293 26 37.7406V30C26 28.8954 25.1046 28 24 28V28C22.8954 28 22 28.8954 22 30V34" stroke="white" stroke-width="1.5" stroke-linecap="round"/>
<path d="M17 41V41C18.3807 41 19.5 39.8807 19.5 38.5V37C19.5 34.7909 17.7091 33 15.5 33H14C12.6193 33 11.5 34.1193 11.5 35.5V35.5" stroke="white" stroke-width="1.5" stroke-linecap="round"/>
<path d="M19.5 38.5V38.5C20.8807 38.5 22 37.3807 22 36V34.5C22 32.2909 20.2091 30.5 18 30.5H16.5C15.1193 30.5 14 31.6193 14 33V33" stroke="white" stroke-width="1.5" stroke-linecap="round"/>
<path d="M18 30V21C18 19.8954 18.8954 19 20 19V19C21.1046 19 22 19.8954 22 21V31" stroke="white" stroke-width="1.5" stroke-linecap="round"/>
<path d="M34.9559 1V5.63236C34.9559 5.8354 35.1205 6 35.3236 6H35.875C37.6009 6 39 7.39911 39 9.125V9.125C39 10.8509 37.6009 12.25 35.875 12.25H35.3917C35.1924 12.25 35.0308 12.4116 35.0308 12.6108V14.5976C35.0308 20.0065 31.0835 24.6058 25.7373 25.4264L22 26" stroke="white" stroke-width="1.5" stroke-linecap="round"/>
<path d="M5.04406 1V5.63236C5.04406 5.8354 4.87946 6 4.67641 6H4.125C2.39911 6 1 7.39911 1 9.125V9.125C1 10.8509 2.39911 12.25 4.125 12.25H4.60833C4.80761 12.25 4.96916 12.4116 4.96916 12.6108V14.5976C4.96916 20.0065 8.91649 24.6058 14.2627 25.4264L18 26" stroke="white" stroke-width="1.5" stroke-linecap="round"/>
<path d="M12 7.75C12 6.7835 12.7835 6 13.75 6C14.7165 6 15.5 6.7835 15.5 7.75C15.5 8.7165 14.7165 9.5 13.75 9.5C12.7835 9.5 12 8.7165 12 7.75Z" fill="white"/>
<path d="M25 7.75C25 6.7835 25.7835 6 26.75 6C27.7165 6 28.5 6.7835 28.5 7.75C28.5 8.7165 27.7165 9.5 26.75 9.5C25.7835 9.5 25 8.7165 25 7.75Z" fill="white"/>
</svg>
