<svg width="27" height="48" viewBox="0 0 27 48" fill="none" xmlns="http://www.w3.org/2000/svg">
<path d="M6.96429 32.3793V33.8313C6.96429 35.429 8.25946 36.7241 9.85714 36.7241V36.7241C11.4548 36.7241 12.75 35.429 12.75 33.8313V31.5647C12.75 28.7151 10.44 26.4052 7.59052 26.4052H6.75C3.43629 26.4052 0.75 29.0915 0.75 32.4052V38.1458C0.75 42.7597 4.49029 46.5 9.10417 46.5V46.5C10.5119 46.5 11.8968 46.1443 13.1302 45.4659L18.6803 42.4133C23.3492 39.8454 26.25 34.9394 26.25 29.611V18C26.25 16.3431 24.9069 15 23.25 15V15C21.5931 15 20.25 16.3431 20.25 18V24" stroke="white" stroke-width="1.5" stroke-linecap="round"/>
<path d="M12.75 34.5V34.5C14.8211 34.5 16.5 32.8211 16.5 30.75V28.5C16.5 25.1863 13.8137 22.5 10.5 22.5H8.25C6.17893 22.5 4.5 24.1789 4.5 26.25V26.25" stroke="white" stroke-width="1.5" stroke-linecap="round"/>
<path d="M16.5 30.75V30.75C18.5711 30.75 20.25 29.0711 20.25 27V24.75C20.25 21.4363 17.5637 18.75 14.25 18.75H12C9.92893 18.75 8.25 20.4289 8.25 22.5V22.5" stroke="white" stroke-width="1.5" stroke-linecap="round"/>
<path d="M14.25 18V4.5C14.25 2.84315 15.5931 1.5 17.25 1.5V1.5C18.9069 1.5 20.25 2.84315 20.25 4.5V19.5" stroke="white" stroke-width="1.5" stroke-linecap="round"/>
</svg>
