<svg width="42" height="36" viewBox="0 0 42 36" fill="none" xmlns="http://www.w3.org/2000/svg">
<path fill-rule="evenodd" clip-rule="evenodd" d="M17.5103 1.34211C20.732 0.00763926 24.2771 -0.341519 27.6972 0.338788C31.1173 1.01909 34.2589 2.69831 36.7247 5.16409C39.1905 7.62987 40.8697 10.7715 41.55 14.1916C42.2303 17.6117 41.8812 21.1568 40.5467 24.3785C39.2122 27.6002 36.9524 30.3538 34.0529 32.2912C31.1535 34.2285 27.7447 35.2626 24.2575 35.2626C22.5489 35.2626 21.1638 33.8774 21.1638 32.1688C21.1638 30.4602 22.5489 29.0751 24.2575 29.0751C26.5209 29.0751 28.7334 28.4039 30.6153 27.1464C32.4973 25.889 33.964 24.1017 34.8302 22.0106C35.6963 19.9196 35.923 17.6186 35.4814 15.3987C35.0398 13.1788 33.9499 11.1398 32.3495 9.53931C30.749 7.93887 28.71 6.84896 26.4901 6.4074C24.2702 5.96584 21.9692 6.19246 19.8782 7.05861C17.7871 7.92477 15.9998 9.39154 14.7424 11.2735C14.4335 11.7357 14.7851 12.3239 15.341 12.3239H17.9353C20.4053 12.3239 21.6736 15.2817 19.9709 17.071L12.9094 24.4916C11.8019 25.6554 9.94571 25.6554 8.83817 24.4916L1.77668 17.071C0.0739605 15.2817 1.3423 12.3239 3.8123 12.3239H5.97805C6.8507 12.3239 7.61198 11.7534 7.94286 10.9459C8.38709 9.86182 8.94038 8.81954 9.59764 7.83587C11.535 4.93642 14.2886 2.67658 17.5103 1.34211Z" fill="#0C0C32"/>
</svg>
